<?xml version="1.0" encoding="utf-8"?>
<!-- Generator: Adobe Illustrator 23.0.6, SVG Export Plug-In . SVG Version: 6.00 Build 0)  -->
<svg version="1.1" id="Layer_1" xmlns="http://www.w3.org/2000/svg" xmlns:xlink="http://www.w3.org/1999/xlink" x="0px" y="0px"
	 viewBox="0 0 66 66" style="enable-background:new 0 0 66 66;" xml:space="preserve">
<style type="text/css">
	.st0{fill:url(#SVGID_1_);}
	.st1{fill:url(#SVGID_2_);}
	.st2{fill:url(#SVGID_3_);}
	.st3{fill:url(#SVGID_4_);}
	.st4{fill:url(#SVGID_5_);}
	.st5{fill:url(#SVGID_6_);}
	.st6{fill:url(#SVGID_7_);}
	.st7{fill:url(#SVGID_8_);}
	.st8{fill:url(#SVGID_9_);}
	.st9{fill:url(#SVGID_10_);}
	.st10{fill:url(#SVGID_11_);}
	.st11{fill:url(#SVGID_12_);}
	.st12{fill:url(#SVGID_13_);}
	.st13{fill:url(#SVGID_14_);}
	.st14{fill:url(#SVGID_15_);}
	.st15{fill:url(#SVGID_16_);}
	.st16{fill:url(#SVGID_17_);}
	.st17{fill:url(#SVGID_18_);}
	.st18{fill:url(#SVGID_19_);}
	.st19{fill:url(#SVGID_20_);}
	.st20{fill:url(#SVGID_21_);}
	.st21{fill:url(#SVGID_22_);}
	.st22{fill:url(#SVGID_23_);}
	.st23{fill:url(#SVGID_24_);}
	.st24{fill:url(#SVGID_25_);}
	.st25{fill:url(#SVGID_26_);}
	.st26{fill:url(#SVGID_27_);}
	.st27{fill:url(#SVGID_28_);}
	.st28{fill:url(#SVGID_29_);}
	.st29{fill:url(#SVGID_30_);}
	.st30{fill:url(#SVGID_31_);}
	.st31{fill:url(#SVGID_32_);}
	.st32{fill:url(#SVGID_33_);}
	.st33{fill:url(#SVGID_34_);}
	.st34{fill:url(#SVGID_35_);}
	.st35{fill:url(#SVGID_36_);}
	.st36{fill:url(#SVGID_37_);}
	.st37{fill:url(#SVGID_38_);}
	.st38{fill:url(#SVGID_39_);}
	.st39{fill:url(#SVGID_40_);}
	.st40{fill:url(#SVGID_41_);}
	.st41{fill:url(#SVGID_42_);}
	.st42{fill:url(#SVGID_43_);}
	.st43{fill:url(#SVGID_44_);}
	.st44{fill:url(#SVGID_45_);}
	.st45{fill:url(#SVGID_46_);}
	.st46{fill:url(#SVGID_47_);}
	.st47{fill:url(#SVGID_48_);}
	.st48{fill:url(#SVGID_49_);}
	.st49{fill:url(#SVGID_50_);}
	.st50{fill:url(#SVGID_51_);}
	.st51{fill:url(#SVGID_52_);}
	.st52{fill:url(#SVGID_53_);}
	.st53{fill:url(#SVGID_54_);}
	.st54{fill:url(#SVGID_55_);}
	.st55{fill:url(#SVGID_56_);}
	.st56{fill:url(#SVGID_57_);}
	.st57{fill:url(#SVGID_58_);}
	.st58{fill:url(#SVGID_59_);}
	.st59{fill:url(#SVGID_60_);}
	.st60{fill:url(#SVGID_61_);}
	.st61{fill:url(#SVGID_62_);}
	.st62{fill:url(#SVGID_63_);}
	.st63{fill:#00B7FF;}
	.st64{fill:url(#SVGID_64_);}
</style>
<radialGradient id="SVGID_1_" cx="33" cy="33" r="33" gradientUnits="userSpaceOnUse">
	<stop  offset="0.8867" style="stop-color:#06066D"/>
	<stop  offset="0.9017" style="stop-color:#0A0A6F;stop-opacity:0.8676"/>
	<stop  offset="0.9162" style="stop-color:#151576;stop-opacity:0.7399"/>
	<stop  offset="0.9304" style="stop-color:#292981;stop-opacity:0.614"/>
	<stop  offset="0.9446" style="stop-color:#444491;stop-opacity:0.4893"/>
	<stop  offset="0.9586" style="stop-color:#6767A6;stop-opacity:0.3653"/>
	<stop  offset="0.9726" style="stop-color:#9393BF;stop-opacity:0.2419"/>
	<stop  offset="0.9863" style="stop-color:#C5C5DD;stop-opacity:0.1209"/>
	<stop  offset="1" style="stop-color:#FFFFFF;stop-opacity:0"/>
</radialGradient>
<circle class="st0" cx="33" cy="33" r="33"/>
<g>
	<linearGradient id="SVGID_2_" gradientUnits="userSpaceOnUse" x1="33" y1="63" x2="33" y2="3">
		<stop  offset="0" style="stop-color:#165BB2"/>
		<stop  offset="1" style="stop-color:#06066D"/>
	</linearGradient>
	<circle class="st1" cx="33" cy="33" r="30"/>
	<linearGradient id="SVGID_3_" gradientUnits="userSpaceOnUse" x1="33" y1="63" x2="33" y2="3">
		<stop  offset="0" style="stop-color:#165BB2"/>
		<stop  offset="1" style="stop-color:#06066D"/>
	</linearGradient>
	<circle class="st2" cx="33" cy="33" r="30"/>
	<linearGradient id="SVGID_4_" gradientUnits="userSpaceOnUse" x1="33" y1="63" x2="33" y2="3">
		<stop  offset="0" style="stop-color:#165BB2"/>
		<stop  offset="1" style="stop-color:#06066D"/>
	</linearGradient>
	<circle class="st3" cx="33" cy="33" r="30"/>
	<linearGradient id="SVGID_5_" gradientUnits="userSpaceOnUse" x1="33" y1="63" x2="33" y2="3">
		<stop  offset="0" style="stop-color:#165BB2"/>
		<stop  offset="1" style="stop-color:#06066D"/>
	</linearGradient>
	<circle class="st4" cx="33" cy="33" r="30"/>
	<linearGradient id="SVGID_6_" gradientUnits="userSpaceOnUse" x1="33" y1="63" x2="33" y2="3">
		<stop  offset="0" style="stop-color:#165BB2"/>
		<stop  offset="1" style="stop-color:#06066D"/>
	</linearGradient>
	<circle class="st5" cx="33" cy="33" r="30"/>
	<linearGradient id="SVGID_7_" gradientUnits="userSpaceOnUse" x1="33" y1="63" x2="33" y2="3">
		<stop  offset="0" style="stop-color:#165BB2"/>
		<stop  offset="1" style="stop-color:#06066D"/>
	</linearGradient>
	<circle class="st6" cx="33" cy="33" r="30"/>
	<linearGradient id="SVGID_8_" gradientUnits="userSpaceOnUse" x1="33" y1="63" x2="33" y2="3">
		<stop  offset="0" style="stop-color:#165BB2"/>
		<stop  offset="1" style="stop-color:#06066D"/>
	</linearGradient>
	<circle class="st7" cx="33" cy="33" r="30"/>
	<linearGradient id="SVGID_9_" gradientUnits="userSpaceOnUse" x1="33" y1="63" x2="33" y2="3">
		<stop  offset="0" style="stop-color:#165BB2"/>
		<stop  offset="1" style="stop-color:#06066D"/>
	</linearGradient>
	<circle class="st8" cx="33" cy="33" r="30"/>
	<linearGradient id="SVGID_10_" gradientUnits="userSpaceOnUse" x1="33" y1="63" x2="33" y2="3">
		<stop  offset="0" style="stop-color:#165BB2"/>
		<stop  offset="1" style="stop-color:#06066D"/>
	</linearGradient>
	<circle class="st9" cx="33" cy="33" r="30"/>
	<linearGradient id="SVGID_11_" gradientUnits="userSpaceOnUse" x1="33" y1="63" x2="33" y2="3">
		<stop  offset="0" style="stop-color:#165BB2"/>
		<stop  offset="1" style="stop-color:#06066D"/>
	</linearGradient>
	<circle class="st10" cx="33" cy="33" r="30"/>
	<linearGradient id="SVGID_12_" gradientUnits="userSpaceOnUse" x1="33" y1="63" x2="33" y2="3">
		<stop  offset="0" style="stop-color:#165BB2"/>
		<stop  offset="1" style="stop-color:#06066D"/>
	</linearGradient>
	<circle class="st11" cx="33" cy="33" r="30"/>
	<linearGradient id="SVGID_13_" gradientUnits="userSpaceOnUse" x1="33" y1="63" x2="33" y2="3">
		<stop  offset="0" style="stop-color:#165BB2"/>
		<stop  offset="1" style="stop-color:#06066D"/>
	</linearGradient>
	<circle class="st12" cx="33" cy="33" r="30"/>
	<linearGradient id="SVGID_14_" gradientUnits="userSpaceOnUse" x1="33" y1="63" x2="33" y2="3">
		<stop  offset="0" style="stop-color:#165BB2"/>
		<stop  offset="1" style="stop-color:#06066D"/>
	</linearGradient>
	<circle class="st13" cx="33" cy="33" r="30"/>
	<linearGradient id="SVGID_15_" gradientUnits="userSpaceOnUse" x1="33" y1="63" x2="33" y2="3">
		<stop  offset="0" style="stop-color:#165BB2"/>
		<stop  offset="1" style="stop-color:#06066D"/>
	</linearGradient>
	<circle class="st14" cx="33" cy="33" r="30"/>
	<linearGradient id="SVGID_16_" gradientUnits="userSpaceOnUse" x1="33" y1="63" x2="33" y2="3">
		<stop  offset="0" style="stop-color:#165BB2"/>
		<stop  offset="1" style="stop-color:#06066D"/>
	</linearGradient>
	<circle class="st15" cx="33" cy="33" r="30"/>
	<linearGradient id="SVGID_17_" gradientUnits="userSpaceOnUse" x1="33" y1="63" x2="33" y2="3">
		<stop  offset="0" style="stop-color:#165BB2"/>
		<stop  offset="1" style="stop-color:#06066D"/>
	</linearGradient>
	<circle class="st16" cx="33" cy="33" r="30"/>
	<linearGradient id="SVGID_18_" gradientUnits="userSpaceOnUse" x1="33" y1="63" x2="33" y2="3">
		<stop  offset="0" style="stop-color:#165BB2"/>
		<stop  offset="1" style="stop-color:#06066D"/>
	</linearGradient>
	<circle class="st17" cx="33" cy="33" r="30"/>
	<linearGradient id="SVGID_19_" gradientUnits="userSpaceOnUse" x1="33" y1="63" x2="33" y2="3">
		<stop  offset="0" style="stop-color:#165BB2"/>
		<stop  offset="1" style="stop-color:#06066D"/>
	</linearGradient>
	<circle class="st18" cx="33" cy="33" r="30"/>
	<linearGradient id="SVGID_20_" gradientUnits="userSpaceOnUse" x1="33" y1="63" x2="33" y2="3">
		<stop  offset="0" style="stop-color:#165BB2"/>
		<stop  offset="1" style="stop-color:#06066D"/>
	</linearGradient>
	<circle class="st19" cx="33" cy="33" r="30"/>
	<linearGradient id="SVGID_21_" gradientUnits="userSpaceOnUse" x1="33" y1="63" x2="33" y2="3">
		<stop  offset="0" style="stop-color:#165BB2"/>
		<stop  offset="1" style="stop-color:#06066D"/>
	</linearGradient>
	<circle class="st20" cx="33" cy="33" r="30"/>
	<linearGradient id="SVGID_22_" gradientUnits="userSpaceOnUse" x1="33" y1="63" x2="33" y2="3">
		<stop  offset="0" style="stop-color:#165BB2"/>
		<stop  offset="1" style="stop-color:#06066D"/>
	</linearGradient>
	<circle class="st21" cx="33" cy="33" r="30"/>
	<linearGradient id="SVGID_23_" gradientUnits="userSpaceOnUse" x1="33" y1="63" x2="33" y2="3">
		<stop  offset="0" style="stop-color:#165BB2"/>
		<stop  offset="1" style="stop-color:#06066D"/>
	</linearGradient>
	<circle class="st22" cx="33" cy="33" r="30"/>
	<linearGradient id="SVGID_24_" gradientUnits="userSpaceOnUse" x1="33" y1="63" x2="33" y2="3">
		<stop  offset="0" style="stop-color:#165BB2"/>
		<stop  offset="1" style="stop-color:#06066D"/>
	</linearGradient>
	<circle class="st23" cx="33" cy="33" r="30"/>
	<linearGradient id="SVGID_25_" gradientUnits="userSpaceOnUse" x1="33" y1="63" x2="33" y2="3">
		<stop  offset="0" style="stop-color:#165BB2"/>
		<stop  offset="1" style="stop-color:#06066D"/>
	</linearGradient>
	<circle class="st24" cx="33" cy="33" r="30"/>
	<linearGradient id="SVGID_26_" gradientUnits="userSpaceOnUse" x1="33" y1="63" x2="33" y2="3">
		<stop  offset="0" style="stop-color:#165BB2"/>
		<stop  offset="1" style="stop-color:#06066D"/>
	</linearGradient>
	<circle class="st25" cx="33" cy="33" r="30"/>
	<linearGradient id="SVGID_27_" gradientUnits="userSpaceOnUse" x1="33" y1="63" x2="33" y2="3">
		<stop  offset="0" style="stop-color:#165BB2"/>
		<stop  offset="1" style="stop-color:#06066D"/>
	</linearGradient>
	<circle class="st26" cx="33" cy="33" r="30"/>
	<linearGradient id="SVGID_28_" gradientUnits="userSpaceOnUse" x1="33" y1="63" x2="33" y2="3">
		<stop  offset="0" style="stop-color:#165BB2"/>
		<stop  offset="1" style="stop-color:#06066D"/>
	</linearGradient>
	<circle class="st27" cx="33" cy="33" r="30"/>
	<linearGradient id="SVGID_29_" gradientUnits="userSpaceOnUse" x1="33" y1="63" x2="33" y2="3">
		<stop  offset="0" style="stop-color:#165BB2"/>
		<stop  offset="1" style="stop-color:#06066D"/>
	</linearGradient>
	<circle class="st28" cx="33" cy="33" r="30"/>
	<linearGradient id="SVGID_30_" gradientUnits="userSpaceOnUse" x1="33" y1="63" x2="33" y2="3">
		<stop  offset="0" style="stop-color:#165BB2"/>
		<stop  offset="1" style="stop-color:#06066D"/>
	</linearGradient>
	<circle class="st29" cx="33" cy="33" r="30"/>
	<linearGradient id="SVGID_31_" gradientUnits="userSpaceOnUse" x1="33" y1="63" x2="33" y2="3">
		<stop  offset="0" style="stop-color:#165BB2"/>
		<stop  offset="1" style="stop-color:#06066D"/>
	</linearGradient>
	<circle class="st30" cx="33" cy="33" r="30"/>
	<linearGradient id="SVGID_32_" gradientUnits="userSpaceOnUse" x1="33" y1="63" x2="33" y2="3">
		<stop  offset="0" style="stop-color:#165BB2"/>
		<stop  offset="1" style="stop-color:#06066D"/>
	</linearGradient>
	<circle class="st31" cx="33" cy="33" r="30"/>
	<linearGradient id="SVGID_33_" gradientUnits="userSpaceOnUse" x1="33" y1="63" x2="33" y2="3">
		<stop  offset="0" style="stop-color:#165BB2"/>
		<stop  offset="1" style="stop-color:#06066D"/>
	</linearGradient>
	<circle class="st32" cx="33" cy="33" r="30"/>
	<linearGradient id="SVGID_34_" gradientUnits="userSpaceOnUse" x1="33" y1="61.4589" x2="33" y2="3.1434">
		<stop  offset="0" style="stop-color:#155EB4"/>
		<stop  offset="1" style="stop-color:#060C72"/>
	</linearGradient>
	<path class="st33" d="M62.6,32.6c0,16.1-13.2,28.9-29.5,28.9c-16.4,0-29.6-12.8-29.7-28.9C3.4,16.5,16.6,3.1,33,3.1
		C49.4,3.1,62.6,16.5,62.6,32.6z"/>
	<linearGradient id="SVGID_35_" gradientUnits="userSpaceOnUse" x1="32.9999" y1="59.9179" x2="32.9999" y2="3.2867">
		<stop  offset="0" style="stop-color:#1561B7"/>
		<stop  offset="1" style="stop-color:#061176"/>
	</linearGradient>
	<path class="st34" d="M62.1,32.1c0,15.5-12.9,27.8-28.9,27.8C17,59.8,3.9,47.7,3.9,32.1C3.8,16.6,16.8,3.3,33,3.3
		C49.2,3.3,62.2,16.6,62.1,32.1z"/>
	<linearGradient id="SVGID_36_" gradientUnits="userSpaceOnUse" x1="32.9997" y1="58.3771" x2="32.9997" y2="3.4301">
		<stop  offset="0" style="stop-color:#1464B9"/>
		<stop  offset="1" style="stop-color:#05177B"/>
	</linearGradient>
	<path class="st35" d="M61.7,31.7c-0.1,15-12.6,26.8-28.4,26.7c-16-0.1-28.9-11.6-29-26.7C4.2,16.6,16.9,3.4,33,3.4
		C49.1,3.4,61.8,16.7,61.7,31.7z"/>
	<linearGradient id="SVGID_37_" gradientUnits="userSpaceOnUse" x1="32.9995" y1="56.8365" x2="32.9995" y2="3.5735">
		<stop  offset="0" style="stop-color:#1367BC"/>
		<stop  offset="1" style="stop-color:#051D80"/>
	</linearGradient>
	<path class="st36" d="M61.3,31.3C61.2,45.8,48.9,57,33.4,56.8c-15.8-0.2-28.6-11-28.7-25.6C4.6,16.7,17.1,3.6,33,3.6
		C48.9,3.6,61.4,16.8,61.3,31.3z"/>
	<linearGradient id="SVGID_38_" gradientUnits="userSpaceOnUse" x1="32.9993" y1="55.2961" x2="32.9993" y2="3.7168">
		<stop  offset="0" style="stop-color:#126ABE"/>
		<stop  offset="1" style="stop-color:#052385"/>
	</linearGradient>
	<path class="st37" d="M60.8,30.8c-0.1,14-12.1,24.6-27.3,24.4C17.9,55.1,5.3,44.9,5.2,30.8C5,16.8,17.3,3.7,33,3.7
		C48.7,3.7,61,16.8,60.8,30.8z"/>
	<linearGradient id="SVGID_39_" gradientUnits="userSpaceOnUse" x1="32.9989" y1="53.756" x2="32.9989" y2="3.8602">
		<stop  offset="0" style="stop-color:#126DC1"/>
		<stop  offset="1" style="stop-color:#052889"/>
	</linearGradient>
	<path class="st38" d="M60.4,30.4C60.3,43.9,48.6,54,33.6,53.8C18.2,53.5,5.8,44,5.6,30.4C5.3,16.8,17.5,3.8,33,3.9
		C48.6,3.9,60.6,16.9,60.4,30.4z"/>
	<linearGradient id="SVGID_40_" gradientUnits="userSpaceOnUse" x1="32.9985" y1="52.2162" x2="32.9985" y2="4.0036">
		<stop  offset="0" style="stop-color:#1170C3"/>
		<stop  offset="1" style="stop-color:#052E8E"/>
	</linearGradient>
	<path class="st39" d="M60,30c-0.1,12.9-11.5,22.5-26.2,22.2C18.5,51.9,6.3,43.1,6,30C5.7,16.9,17.6,4,33,4C48.4,4,60.2,17,60,30z"
		/>
	<linearGradient id="SVGID_41_" gradientUnits="userSpaceOnUse" x1="32.9981" y1="50.6784" x2="32.9981" y2="4.1469">
		<stop  offset="0" style="stop-color:#1073C6"/>
		<stop  offset="1" style="stop-color:#043493"/>
	</linearGradient>
	<path class="st40" d="M59.6,29.6C59.4,42,48.3,51,33.9,50.7c-15-0.3-27.1-8.5-27.4-21.1C6.1,16.9,17.8,4.1,33,4.1
		C48.2,4.2,59.8,17.1,59.6,29.6z"/>
	<linearGradient id="SVGID_42_" gradientUnits="userSpaceOnUse" x1="32.9971" y1="49.1398" x2="32.9971" y2="4.2903">
		<stop  offset="0" style="stop-color:#1076C8"/>
		<stop  offset="1" style="stop-color:#043997"/>
	</linearGradient>
	<path class="st41" d="M59.1,29.1c-0.2,11.9-11,20.4-25.2,20c-14.8-0.4-26.8-7.9-27.1-20C6.5,17,18,4.3,33,4.3
		C48.1,4.3,59.3,17.2,59.1,29.1z"/>
	<linearGradient id="SVGID_43_" gradientUnits="userSpaceOnUse" x1="32.9964" y1="47.6019" x2="32.9964" y2="4.4337">
		<stop  offset="0" style="stop-color:#0F79CB"/>
		<stop  offset="1" style="stop-color:#043F9C"/>
	</linearGradient>
	<path class="st42" d="M58.7,28.7C58.5,40.1,48,48,34.1,47.6C19.4,47.2,7.7,40.3,7.3,28.7C6.9,17.1,18.1,4.4,33,4.4
		C47.9,4.5,58.9,17.3,58.7,28.7z"/>
	<linearGradient id="SVGID_44_" gradientUnits="userSpaceOnUse" x1="32.9956" y1="46.0647" x2="32.9956" y2="4.577">
		<stop  offset="0" style="stop-color:#0E7CCD"/>
		<stop  offset="1" style="stop-color:#0445A1"/>
	</linearGradient>
	<path class="st43" d="M58.3,28.3C58,39.1,47.8,46.5,34.2,46c-14.4-0.5-26-6.7-26.5-17.8C7.3,17.1,18.3,4.6,33,4.6
		C47.7,4.6,58.5,17.3,58.3,28.3z"/>
	<linearGradient id="SVGID_45_" gradientUnits="userSpaceOnUse" x1="32.9947" y1="44.5283" x2="32.9947" y2="4.7204">
		<stop  offset="0" style="stop-color:#0D7FD0"/>
		<stop  offset="1" style="stop-color:#044BA6"/>
	</linearGradient>
	<path class="st44" d="M57.8,27.8C57.6,38.2,47.6,45,34.3,44.5C20,44,8.6,38.4,8.2,27.8C7.7,17.2,18.5,4.7,33,4.7
		C47.6,4.7,58.1,17.4,57.8,27.8z"/>
	<linearGradient id="SVGID_46_" gradientUnits="userSpaceOnUse" x1="32.9937" y1="42.9929" x2="32.9937" y2="4.8637">
		<stop  offset="0" style="stop-color:#0D82D2"/>
		<stop  offset="1" style="stop-color:#0350AA"/>
	</linearGradient>
	<path class="st45" d="M57.4,27.4c-0.3,9.8-9.9,16.1-23,15.6C20.3,42.4,9.1,37.5,8.6,27.4C8.1,17.3,18.7,4.8,33,4.9
		C47.4,4.9,57.7,17.5,57.4,27.4z"/>
	<linearGradient id="SVGID_47_" gradientUnits="userSpaceOnUse" x1="32.9926" y1="41.4588" x2="32.9926" y2="5.0071">
		<stop  offset="0" style="stop-color:#0C85D5"/>
		<stop  offset="1" style="stop-color:#0356AF"/>
	</linearGradient>
	<path class="st46" d="M57,27c-0.3,9.3-9.7,15-22.5,14.4C20.6,40.8,9.6,36.6,9,27C8.5,17.3,18.8,5,33,5C47.2,5,57.3,17.6,57,27z"/>
	<linearGradient id="SVGID_48_" gradientUnits="userSpaceOnUse" x1="32.9914" y1="39.9263" x2="32.9914" y2="5.1505">
		<stop  offset="0" style="stop-color:#0B88D7"/>
		<stop  offset="1" style="stop-color:#035CB4"/>
	</linearGradient>
	<path class="st47" d="M56.5,26.5c-0.3,8.8-9.4,13.9-21.9,13.3C20.9,39.3,10,35.7,9.5,26.5C8.9,17.4,19,5.1,33,5.2
		C47.1,5.2,56.9,17.7,56.5,26.5z"/>
	<linearGradient id="SVGID_49_" gradientUnits="userSpaceOnUse" x1="32.99" y1="38.3958" x2="32.99" y2="5.2938">
		<stop  offset="0" style="stop-color:#0B8ADA"/>
		<stop  offset="1" style="stop-color:#0361B8"/>
	</linearGradient>
	<path class="st48" d="M56.1,26.1C55.8,34.4,47,39,34.7,38.3c-13.5-0.7-24.2-3.6-24.8-12.2C9.2,17.5,19.2,5.3,33,5.3
		C46.9,5.3,56.5,17.8,56.1,26.1z"/>
	<linearGradient id="SVGID_50_" gradientUnits="userSpaceOnUse" x1="32.9894" y1="36.8681" x2="32.9894" y2="5.4372">
		<stop  offset="0" style="stop-color:#0A8DDC"/>
		<stop  offset="1" style="stop-color:#0367BD"/>
	</linearGradient>
	<path class="st49" d="M55.7,25.7c-0.4,7.8-8.8,11.8-20.9,11.1c-13.3-0.7-23.9-3-24.5-11.1C9.6,17.5,19.3,5.4,33,5.4
		C46.7,5.5,56.1,17.8,55.7,25.7z"/>
	<linearGradient id="SVGID_51_" gradientUnits="userSpaceOnUse" x1="32.9879" y1="35.344" x2="32.9879" y2="5.5805">
		<stop  offset="0" style="stop-color:#0990DF"/>
		<stop  offset="1" style="stop-color:#036DC2"/>
	</linearGradient>
	<path class="st50" d="M55.3,25.3c-0.4,7.2-8.6,10.7-20.3,10c-13.1-0.8-23.5-2.4-24.2-10C10,17.6,19.5,5.5,33,5.6
		C46.6,5.6,55.7,17.9,55.3,25.3z"/>
	<linearGradient id="SVGID_52_" gradientUnits="userSpaceOnUse" x1="32.9863" y1="33.825" x2="32.9863" y2="5.7239">
		<stop  offset="0" style="stop-color:#0993E1"/>
		<stop  offset="1" style="stop-color:#0272C6"/>
	</linearGradient>
	<path class="st51" d="M54.8,24.8c-0.4,6.7-8.3,9.6-19.8,8.9c-12.9-0.8-23.1-1.8-23.9-8.9C10.4,17.7,19.7,5.7,33,5.7
		C46.4,5.8,55.2,18,54.8,24.8z"/>
	<linearGradient id="SVGID_53_" gradientUnits="userSpaceOnUse" x1="32.9846" y1="32.3134" x2="32.9846" y2="5.8673">
		<stop  offset="0" style="stop-color:#0896E4"/>
		<stop  offset="1" style="stop-color:#0278CB"/>
	</linearGradient>
	<path class="st52" d="M54.4,24.4c-0.4,6.2-8,8.5-19.2,7.8c-12.7-0.9-22.8-1.2-23.5-7.8C10.8,17.7,19.9,5.8,33,5.9
		C46.2,5.9,54.8,18.1,54.4,24.4z"/>
	<linearGradient id="SVGID_54_" gradientUnits="userSpaceOnUse" x1="32.9827" y1="30.8128" x2="32.9827" y2="6.0106">
		<stop  offset="0" style="stop-color:#0799E6"/>
		<stop  offset="1" style="stop-color:#027ED0"/>
	</linearGradient>
	<path class="st53" d="M54,24c-0.5,5.7-7.8,7.5-18.7,6.7C22.8,29.7,12.8,30.1,12,24c-0.8-6.2,8-18,21-18C46.1,6.1,54.4,18.2,54,24z"
		/>
	<linearGradient id="SVGID_55_" gradientUnits="userSpaceOnUse" x1="32.9807" y1="29.3294" x2="32.9807" y2="6.154">
		<stop  offset="0" style="stop-color:#069CE9"/>
		<stop  offset="1" style="stop-color:#0284D5"/>
	</linearGradient>
	<path class="st54" d="M53.5,23.5c-0.5,5.2-7.5,6.4-18.2,5.6c-12.3-1-22.1,0.1-22.9-5.6C11.6,17.9,20.2,6.1,33,6.2
		C45.9,6.2,54,18.2,53.5,23.5z"/>
	<linearGradient id="SVGID_56_" gradientUnits="userSpaceOnUse" x1="32.9786" y1="27.8738" x2="32.9786" y2="6.2973">
		<stop  offset="0" style="stop-color:#069FEB"/>
		<stop  offset="1" style="stop-color:#0289D9"/>
	</linearGradient>
	<path class="st55" d="M53.1,23.1c-0.5,4.6-7.2,5.3-17.6,4.4c-12.1-1-21.7,0.7-22.6-4.4C12,17.9,20.4,6.2,33,6.3
		C45.7,6.3,53.6,18.3,53.1,23.1z"/>
	<linearGradient id="SVGID_57_" gradientUnits="userSpaceOnUse" x1="32.9763" y1="26.4636" x2="32.9763" y2="6.4407">
		<stop  offset="0" style="stop-color:#05A2EE"/>
		<stop  offset="1" style="stop-color:#018FDE"/>
	</linearGradient>
	<path class="st56" d="M52.7,22.7c-0.5,4.1-7,4.2-17.1,3.3c-11.9-1-21.3,1.3-22.3-3.3C12.4,18,20.5,6.4,33,6.4
		C45.6,6.5,53.2,18.4,52.7,22.7z"/>
	<linearGradient id="SVGID_58_" gradientUnits="userSpaceOnUse" x1="32.9738" y1="25.1248" x2="32.9738" y2="6.584">
		<stop  offset="0" style="stop-color:#04A5F0"/>
		<stop  offset="1" style="stop-color:#0195E3"/>
	</linearGradient>
	<path class="st57" d="M52.2,22.2c-0.5,3.6-6.7,3.1-16.6,2.2c-11.7-1.1-21,1.9-21.9-2.2c-1-4.2,7-15.7,19.2-15.7
		C45.4,6.6,52.8,18.5,52.2,22.2z"/>
	<linearGradient id="SVGID_59_" gradientUnits="userSpaceOnUse" x1="32.9712" y1="23.8882" x2="32.9712" y2="6.7274">
		<stop  offset="0" style="stop-color:#04A8F3"/>
		<stop  offset="1" style="stop-color:#019AE7"/>
	</linearGradient>
	<path class="st58" d="M51.8,21.8c-0.6,3.1-6.4,2.1-16,1.1c-11.5-1.1-20.6,2.5-21.6-1.1c-1-3.7,6.7-15.1,18.8-15.1
		C45.2,6.8,52.4,18.6,51.8,21.8z"/>
	<linearGradient id="SVGID_60_" gradientUnits="userSpaceOnUse" x1="32.9684" y1="22.7794" x2="32.9684" y2="6.8707">
		<stop  offset="0" style="stop-color:#03ABF5"/>
		<stop  offset="1" style="stop-color:#01A0EC"/>
	</linearGradient>
	<path class="st59" d="M51.4,21.4c-0.6,2.6-6.1,1-15.5,0c-11.3-1.2-20.3,3.1-21.3,0C13.6,18.2,21,6.8,33,6.9
		C45.1,6.9,52,18.7,51.4,21.4z"/>
	<linearGradient id="SVGID_61_" gradientUnits="userSpaceOnUse" x1="32.9656" y1="21.8109" x2="32.9656" y2="7.0141">
		<stop  offset="0" style="stop-color:#02AEF8"/>
		<stop  offset="1" style="stop-color:#01A6F1"/>
	</linearGradient>
	<path class="st60" d="M51,21c-0.6,2-5.9-0.1-14.9-1.1c-11.1-1.2-19.9,3.8-21,1.1C13.9,18.2,21.2,7,33,7C44.9,7.1,51.6,18.7,51,21z"
		/>
	<linearGradient id="SVGID_62_" gradientUnits="userSpaceOnUse" x1="32.9627" y1="21.016" x2="32.9627" y2="7.1574">
		<stop  offset="0" style="stop-color:#01B1FA"/>
		<stop  offset="1" style="stop-color:#00ACF6"/>
	</linearGradient>
	<path class="st61" d="M50.5,20.5c-0.6,1.5-5.6-1.2-14.4-2.2c-11-1.3-19.5,4.4-20.6,2.2C14.3,18.3,21.4,7.1,33,7.2
		C44.7,7.2,51.2,18.8,50.5,20.5z"/>
	<linearGradient id="SVGID_63_" gradientUnits="userSpaceOnUse" x1="32.9602" y1="20.3726" x2="32.9602" y2="7.3008">
		<stop  offset="0" style="stop-color:#01B4FD"/>
		<stop  offset="1" style="stop-color:#00B1FA"/>
	</linearGradient>
	<path class="st62" d="M50.1,20.1c-0.6,1-5.3-2.3-13.9-3.3c-10.8-1.4-19.2,5-20.3,3.3C14.7,18.4,21.6,7.2,33,7.3
		C44.6,7.4,50.8,18.9,50.1,20.1z"/>
	<path class="st63" d="M49.7,19.7c-0.6,0.5-5.1-3.3-13.3-4.4c-10.6-1.4-18.8,5.6-20,4.4C15.1,18.4,21.7,7.4,33,7.4
		C44.4,7.5,50.4,19,49.7,19.7z"/>
</g>
<linearGradient id="SVGID_64_" gradientUnits="userSpaceOnUse" x1="33" y1="22.0185" x2="33" y2="7.4435">
	<stop  offset="0.4303" style="stop-color:#FFFFFF;stop-opacity:0"/>
	<stop  offset="1" style="stop-color:#FFFFFF"/>
</linearGradient>
<path class="st64" d="M49.7,19.7c-0.6,0.5-5.1-3.3-13.3-4.4c-10.6-1.4-18.8,5.6-20,4.4C15.1,18.4,21.8,7.4,33,7.4
	C44.4,7.5,50.5,19,49.7,19.7z"/>
</svg>
