<?xml version="1.0" encoding="utf-8"?>
<!-- Generator: Adobe Illustrator 23.0.6, SVG Export Plug-In . SVG Version: 6.00 Build 0)  -->
<svg version="1.1" id="Слой_1" xmlns="http://www.w3.org/2000/svg" xmlns:xlink="http://www.w3.org/1999/xlink" x="0px" y="0px"
	 viewBox="0 0 50 50" style="enable-background:new 0 0 50 50;" xml:space="preserve">
<style type="text/css">
	.st0{fill:url(#SVGID_1_);}
</style>
<linearGradient id="SVGID_1_" gradientUnits="userSpaceOnUse" x1="0" y1="25" x2="50" y2="25">
	<stop  offset="0" style="stop-color:#CBA9A3"/>
	<stop  offset="0.1382" style="stop-color:#E8C8FF"/>
	<stop  offset="0.5855" style="stop-color:#9E4A3E"/>
	<stop  offset="0.8134" style="stop-color:#D8BAAB"/>
	<stop  offset="1" style="stop-color:#EBCECE"/>
</linearGradient>
<path class="st0" d="M50,29.7v-9.4h-5.6l-2.2-5.6l4.1-4.1l-6.6-6.6l-4.1,4.1l-5.9-2.5V0h-9.4v5.6l-5.6,2.5l-4.1-4.1l-6.6,6.6
	l4.1,4.1l-2.5,5.6H0v9.4h5.6l2.2,5.6l-4.1,4.1l6.6,6.6l4.1-4.1l5.6,2.2V50h9.4v-5.6l5.6-2.2l4.1,4.1l6.6-6.6l-4.1-4.1l2.2-5.6H50
	V29.7z M25,37.5c-6.9,0-12.5-5.6-12.5-12.5S18.1,12.5,25,12.5S37.5,18.1,37.5,25S31.9,37.5,25,37.5z"/>
</svg>
